<?xml version="1.0" encoding="UTF-8" standalone="no"?>
<!-- Uploaded to: SVG Repo, www.svgrepo.com, Generator: SVG Repo Mixer Tools -->

<svg
   width="666.66699"
   height="666.66699"
   viewBox="0 0 20.00001 20.00001"
   version="1.1"
   id="svg16"
   sodipodi:docname="developer-portal-svgrepo-com.svg"
   inkscape:version="1.2.2 (b0a8486541, 2022-12-01)"
   xmlns:inkscape="http://www.inkscape.org/namespaces/inkscape"
   xmlns:sodipodi="http://sodipodi.sourceforge.net/DTD/sodipodi-0.dtd"
   xmlns="http://www.w3.org/2000/svg"
   xmlns:svg="http://www.w3.org/2000/svg"
   xmlns:rdf="http://www.w3.org/1999/02/22-rdf-syntax-ns#"
   xmlns:cc="http://creativecommons.org/ns#"
   xmlns:dc="http://purl.org/dc/elements/1.1/">
  <sodipodi:namedview
     id="namedview18"
     pagecolor="#ffffff"
     bordercolor="#000000"
     borderopacity="0.25"
     inkscape:showpageshadow="2"
     inkscape:pageopacity="0.0"
     inkscape:pagecheckerboard="0"
     inkscape:deskcolor="#d1d1d1"
     showgrid="false"
     inkscape:zoom="0.74422989"
     inkscape:cx="215.65917"
     inkscape:cy="260.00031"
     inkscape:window-width="1854"
     inkscape:window-height="1011"
     inkscape:window-x="66"
     inkscape:window-y="32"
     inkscape:window-maximized="1"
     inkscape:current-layer="svg16" />
  <defs
     id="defs4">
    <style
       id="style2">.cls-1{fill:#4285f4;}.cls-2{fill:#669df6;}</style>
  </defs>
  <title
     id="title6">Icon_24px_DevPortal_Color</title>
  <g
     data-name="Product Icons"
     id="g14"
     transform="translate(-1.999995,-1.999995)">
    <path
       class="cls-1"
       d="M 12,6.4 A 5.59,5.59 0 0 1 16,8 L 17,7 A 7.07,7.07 0 0 0 7,7 v 0 l 1,1 a 5.59,5.59 0 0 1 4,-1.6 z"
       id="path8" />
    <path
       class="cls-1"
       d="M 12,17.6 A 5.59,5.59 0 0 1 8,16 l -1,1 a 7.07,7.07 0 0 0 10,0 v 0 l -1,-1 a 5.59,5.59 0 0 1 -4,1.6 z"
       id="path10" />
    <path
       class="cls-2"
       d="M 12,15.07 A 3.06,3.06 0 0 1 9,12.73 H 5.11 v 2.38 L 2,12 5.11,8.9 v 2.38 H 9 a 3.06,3.06 0 0 1 3,-2.34 v 0 a 3.06,3.06 0 0 1 3,2.34 h 3.91 V 8.89 L 22,12 18.89,15.12 V 12.73 H 15 a 3.06,3.06 0 0 1 -3,2.34 z m 0,-4.68 A 1.61,1.61 0 1 0 13.61,12 v 0 A 1.61,1.61 0 0 0 12,10.39 Z"
       id="path12" />
  </g>
  <metadata
     id="metadata301">
    <rdf:RDF>
      <cc:Work
         rdf:about="">
        <dc:title>Icon_24px_DevPortal_Color</dc:title>
      </cc:Work>
    </rdf:RDF>
  </metadata>
</svg>
