<?xml version="1.0" encoding="UTF-8" standalone="no"?>
<!-- Created with Inkscape (http://www.inkscape.org/) -->

<svg
   width="4.2333331mm"
   height="4.2333331mm"
   viewBox="0 0 4.2333331 4.2333331"
   version="1.1"
   id="svg1143"
   inkscape:version="1.2.2 (b0a8486541, 2022-12-01)"
   sodipodi:docname="nostr.svg"
   xmlns:inkscape="http://www.inkscape.org/namespaces/inkscape"
   xmlns:sodipodi="http://sodipodi.sourceforge.net/DTD/sodipodi-0.dtd"
   xmlns="http://www.w3.org/2000/svg"
   xmlns:svg="http://www.w3.org/2000/svg">
  <sodipodi:namedview
     id="namedview1145"
     pagecolor="#ffffff"
     bordercolor="#000000"
     borderopacity="0.25"
     inkscape:showpageshadow="2"
     inkscape:pageopacity="0.0"
     inkscape:pagecheckerboard="0"
     inkscape:deskcolor="#d1d1d1"
     inkscape:document-units="mm"
     showgrid="false"
     inkscape:zoom="12.001571"
     inkscape:cx="-14.289796"
     inkscape:cy="1.5414648"
     inkscape:window-width="1854"
     inkscape:window-height="1011"
     inkscape:window-x="66"
     inkscape:window-y="32"
     inkscape:window-maximized="1"
     inkscape:current-layer="layer1" />
  <defs
     id="defs1140" />
  <g
     inkscape:label="Layer 1"
     inkscape:groupmode="layer"
     id="layer1"
     transform="translate(-102.88333,-146.38333)">
    <path
       d="m 106.27049,148.17814 c 0.0811,0.5615 -0.50016,0.68031 -0.83454,0.66993 -0.0215,-6.2e-4 -0.0417,0.01 -0.0544,0.0271 -0.0346,0.0473 -0.0899,0.10843 -0.13257,0.10843 -0.0479,0 -0.0911,0.0922 -0.11076,0.14955 -0.002,0.006 0.004,0.0116 0.01,0.01 0.52957,-0.17195 0.73736,-0.23093 0.82688,-0.21435 0.0723,0.0134 0.20745,0.25533 0.26599,0.37463 -0.14554,0.008 -0.19405,-0.12209 -0.2275,-0.14551 -0.0268,-0.0187 -0.0368,0.0669 -0.0385,0.11206 -0.0318,-0.0167 -0.0719,-0.0401 -0.0753,-0.11206 -0.003,-0.0719 -0.0401,-0.0535 -0.0686,-0.0502 -0.0284,0.003 -0.46507,0.14383 -0.53031,0.16223 -0.0653,0.0184 -0.14053,0.0435 -0.20242,0.087 -0.10373,0.0502 -0.17064,0.015 -0.18904,-0.0702 -0.0147,-0.0682 0.0809,-0.27818 0.13048,-0.37462 -0.0613,0.0229 -0.1887,0.0692 -0.20743,0.0719 -0.0182,0.002 -0.24865,0.18053 -0.3719,0.2772 -0.007,0.006 -0.0118,0.0139 -0.0135,0.0229 -0.0197,0.10714 -0.0827,0.13713 -0.19178,0.19328 -0.0878,0.0452 -0.39447,0.51644 -0.55216,0.77084 -0.0109,0.0176 -0.0269,0.0311 -0.0441,0.0426 -0.10016,0.0672 -0.20217,0.23836 -0.24354,0.32211 -0.0589,-0.16993 0.0178,-0.31609 0.0636,-0.36794 -0.0201,-0.0174 -0.0664,-0.007 -0.087,0 0.0569,-0.19568 0.25595,-0.19568 0.24926,-0.19568 0.0368,-0.0318 0.46841,-0.64891 0.47844,-0.67734 0.01,-0.0282 -0.006,-0.16009 0.21051,-0.23239 0.003,-0.001 0.007,-0.003 0.01,-0.005 0.169,-0.10863 0.29578,-0.28373 0.33833,-0.35832 -0.22563,-0.0155 -0.48401,-0.14131 -0.6191,-0.2221 -0.0291,-0.0174 -0.06,-0.0326 -0.0937,-0.0364 -0.18497,-0.0209 -0.37018,0.0974 -0.44481,0.16484 -0.0308,-0.0428 0.004,-0.16725 0.0251,-0.22411 -0.0749,-0.0107 -0.18513,0.0981 -0.23085,0.15386 -0.0495,-0.0776 -0.006,-0.2163 0.0217,-0.27595 -0.099,0.003 -0.16618,0.0479 -0.18737,0.0703 0.082,-0.61044 0.70898,-0.43291 0.716,-0.4248 -0.0335,-0.0348 -0.0307,-0.0803 -0.0251,-0.0987 0.37974,0.01 0.55707,-0.0535 0.66915,-0.11875 0.88329,-0.49336 1.26387,-0.19065 1.4044,-0.11455 0.14052,0.0761 0.39564,0.10703 0.57213,0.0368 0.21078,-0.0953 0.17905,-0.34106 0.13633,-0.43484 -0.0468,-0.10286 -0.31115,-0.24502 -0.40484,-0.4248 -0.0937,-0.17978 -0.0121,-0.39842 0.0965,-0.42889 0.1034,-0.029 0.17724,0.005 0.23392,0.0559 0.0378,0.0341 0.14387,0.0585 0.18821,0.0744 0.0443,0.0159 0.11793,0.0368 0.11375,0.0493 -0.004,0.0125 -0.0752,0.0109 -0.0862,0.0109 -0.0226,0 -0.0493,0.003 -0.0226,0.0159 0.0314,0.0127 0.0788,0.0312 0.10145,0.0434 0.003,0.001 0.002,0.006 -9.3e-4,0.007 -0.15394,0.0414 -0.2914,-0.0441 -0.39332,0.0545 -0.10372,0.10035 0.11711,0.17728 0.23087,0.29769 0.11375,0.12042 0.23086,0.26425 0.13717,0.59205 -0.0725,0.25377 -0.37649,0.46953 -0.5335,0.55393 -0.009,0.005 -0.014,0.0152 -0.0125,0.0254 z"
       fill="#7b50c2"
       id="path2"
       style="fill:#ffffff;fill-opacity:1;stroke-width:0.00682227" />
  </g>
</svg>
